<svg width="2420" height="1503" viewBox="0 0 2420 1503" fill="none" xmlns="http://www.w3.org/2000/svg">
<path d="M2082 670C2268.67 670 2420 520.015 2420 335C2420 149.985 2268.67 0 2082 0C1895.33 0 1744 149.985 1744 335C1744 520.015 1895.33 670 2082 670Z" fill="#37D298" fill-opacity="0.28"/>
<path d="M475 1503C737.335 1503 950 1290.34 950 1028C950 765.665 737.335 553 475 553C212.665 553 0 765.665 0 1028C0 1290.34 212.665 1503 475 1503Z" fill="#37D298" fill-opacity="0.28"/>
<path d="M454 676C531.32 676 594 613.32 594 536C594 458.68 531.32 396 454 396C376.68 396 314 458.68 314 536C314 613.32 376.68 676 454 676Z" fill="#37D298" fill-opacity="0.28"/>
<mask id="mask0_101_2" style="mask-type:alpha" maskUnits="userSpaceOnUse" x="0" y="553" width="950" height="950">
<path d="M475 1503C737.335 1503 950 1290.34 950 1028C950 765.665 737.335 553 475 553C212.665 553 0 765.665 0 1028C0 1290.34 212.665 1503 475 1503Z" fill="#1ED760"/>
</mask>
<g mask="url(#mask0_101_2)">
<path d="M454 676C531.32 676 594 613.32 594 536C594 458.68 531.32 396 454 396C376.68 396 314 458.68 314 536C314 613.32 376.68 676 454 676Z" fill="#37D298"/>
</g>
</svg>
